<svg width="79" height="22" viewBox="0 0 79 22" fill="none" xmlns="http://www.w3.org/2000/svg">
<path d="M12.36 0.489999V2.2C11.4 1 9.42 0.129999 7.56 0.129999C3.81 0.129999 0.84 3.16 0.84 7.48C0.84 11.8 3.81 14.86 7.56 14.86C9.36 14.86 11.13 14.11 12.36 12.82V14.05C12.36 15.37 10.74 16.36 8.43 16.36C6.72 16.36 4.92 15.85 4.02 15.1L2.13 19.09C3.78 20.29 6.48 21.16 9.36 21.16C14.52 21.16 18.18 18.34 18.18 14.35V0.489999H12.36ZM9.57 10.06C7.95 10.06 6.78 8.98 6.78 7.48C6.78 5.98 7.95 4.93 9.57 4.93C11.19 4.93 12.36 5.98 12.36 7.48C12.36 8.98 11.19 10.06 9.57 10.06ZM28.7468 0.129999C26.1368 0.129999 23.8268 0.88 21.6668 1.96L23.4368 5.47C24.7268 4.81 25.7168 4.42 27.1868 4.42C28.9868 4.42 30.3668 5.32 30.3668 6.85V6.94C29.2568 6.49 28.1168 6.25 27.0968 6.25C23.3468 6.25 20.4068 8.38 20.4068 11.41C20.4068 14.32 23.0468 16.36 26.3768 16.36C27.8468 16.36 29.3168 15.85 30.3668 14.89V16H35.9168V6.85C35.9168 2.62 32.6768 0.129999 28.7468 0.129999ZM27.7868 12.94C26.6768 12.94 25.8968 12.25 25.8968 11.26C25.8968 10.21 26.7368 9.46 27.9068 9.46C28.8068 9.46 29.8268 9.67 30.3668 9.94V11.41C30.2468 12.31 29.1668 12.94 27.7868 12.94ZM58.5642 0.129999C56.2842 0.129999 54.4242 1.12 53.5242 2.68C52.4742 1.09 50.6742 0.129999 48.6642 0.129999C46.8342 0.129999 45.3942 1 44.6442 2.38V0.489999H38.8542V16H44.6442V7C44.6442 5.8 45.5442 4.93 46.8342 4.93C48.1242 4.93 49.0242 5.86 49.0242 7.18V16.03H54.5442V7C54.5442 5.8 55.4442 4.93 56.7342 4.93C58.0242 4.93 58.9242 5.86 58.9242 7.18V16.03H64.4442V6.13C64.4442 2.62 61.8042 0.129999 58.5642 0.129999Z" fill="white"/>
<path d="M73.2087 3.25V0.489999H67.4187V16H73.2087V9.43C73.2087 6.61 75.0087 4.93 78.0687 4.93V0.129999C75.9687 0.129999 74.2287 1.33 73.2087 3.25Z" fill="#FF0F0F"/>
</svg>
